<svg width="25" height="25" viewBox="0 0 25 25" fill="none" xmlns="http://www.w3.org/2000/svg">
<path d="M21.1538 22.9167V2.08334C21.1538 1.49306 21.3384 0.998618 21.7077 0.600007C22.0769 0.201396 22.5333 0.00139607 23.0769 7.1839e-06C23.6205 -0.0013817 24.0775 0.198618 24.4481 0.600007C24.8186 1.0014 25.0025 1.49584 25 2.08334V22.9167C25 23.5069 24.8154 24.0021 24.4461 24.4021C24.0769 24.8021 23.6205 25.0014 23.0769 25C22.5333 24.9986 22.0769 24.7986 21.7077 24.4C21.3384 24.0014 21.1538 23.5069 21.1538 22.9167ZM0 21.0937V3.90625C0 3.28126 0.192308 2.77778 0.576923 2.39584C0.961538 2.0139 1.41025 1.82292 1.92307 1.82292C2.08333 1.82292 2.25961 1.84028 2.45192 1.87501C2.64423 1.90973 2.82051 1.99653 2.98077 2.13542L14.9038 10.7813C15.1923 10.9896 15.409 11.2417 15.5538 11.5375C15.6987 11.8333 15.7705 12.1542 15.7692 12.5C15.7679 12.8458 15.6961 13.1674 15.5538 13.4646C15.4115 13.7618 15.1949 14.0132 14.9038 14.2187L2.98077 22.8646C2.82051 23.0035 2.64423 23.0903 2.45192 23.125C2.25961 23.1597 2.08333 23.1771 1.92307 23.1771C1.41025 23.1771 0.961538 22.9861 0.576923 22.6042C0.192308 22.2222 0 21.7187 0 21.0937Z" fill="black"/>
</svg>
