<svg width="25" height="25" viewBox="0 0 25 25" fill="none" xmlns="http://www.w3.org/2000/svg">
<path d="M1.25 0H8.125C8.45652 0 8.77446 0.117063 9.00888 0.325437C9.2433 0.533811 9.375 0.816426 9.375 1.11111V23.8889C9.375 24.1836 9.2433 24.4662 9.00888 24.6746C8.77446 24.8829 8.45652 25 8.125 25H1.25C0.91848 25 0.600537 24.8829 0.366116 24.6746C0.131696 24.4662 0 24.1836 0 23.8889V1.11111C0 0.816426 0.131696 0.533811 0.366116 0.325437C0.600537 0.117063 0.91848 0 1.25 0ZM16.875 0H23.75C24.0815 0 24.3995 0.117063 24.6339 0.325437C24.8683 0.533811 25 0.816426 25 1.11111V23.8889C25 24.1836 24.8683 24.4662 24.6339 24.6746C24.3995 24.8829 24.0815 25 23.75 25H16.875C16.5435 25 16.2255 24.8829 15.9911 24.6746C15.7567 24.4662 15.625 24.1836 15.625 23.8889V1.11111C15.625 0.816426 15.7567 0.533811 15.9911 0.325437C16.2255 0.117063 16.5435 0 16.875 0Z" fill="black"/>
</svg>
