<svg width="18" height="22" viewBox="0 0 18 22" fill="none" xmlns="http://www.w3.org/2000/svg">
<path fill-rule="evenodd" clip-rule="evenodd" d="M2.26852 0.226219L17.2908 9.70019C17.5075 9.83668 17.6865 10.0278 17.8107 10.2554C17.9348 10.4829 18 10.7393 18 11C18 11.2607 17.9348 11.5171 17.8107 11.7446C17.6865 11.9722 17.5075 12.1633 17.2908 12.2998L2.26852 21.7738C2.04294 21.916 1.78441 21.994 1.51962 21.9997C1.25482 22.0053 0.993345 21.9385 0.762165 21.806C0.530985 21.6736 0.338475 21.4803 0.204497 21.2461C0.0705189 21.012 -7.45665e-05 20.7454 5.91047e-08 20.474V1.52603C-7.45665e-05 1.25458 0.0705189 0.988024 0.204497 0.753867C0.338475 0.519709 0.530985 0.32643 0.762165 0.193969C0.993345 0.0615079 1.25482 -0.00533626 1.51962 0.000332819C1.78441 0.00600189 2.04294 0.0839789 2.26852 0.226219Z" fill="black"/>
</svg>
