<svg width="25" height="25" viewBox="0 0 25 25" fill="none" xmlns="http://www.w3.org/2000/svg">
<path d="M2.0816 0C3.22648 0 4.1632 0.9375 4.1632 2.08333V22.9167C4.1632 24.0625 3.22648 25 2.0816 25C0.936719 25 0 24.0625 0 22.9167V2.08333C0 0.9375 0.936719 0 2.0816 0ZM9.70025 14.2083L21.7111 22.6875C23.0849 23.6667 25 22.6667 25 20.9792V4.02083C25 2.33333 23.1057 1.35417 21.7111 2.3125L9.70025 10.7917C9.42542 10.9837 9.20097 11.2392 9.04599 11.5367C8.89101 11.8341 8.81008 12.1646 8.81008 12.5C8.81008 12.8354 8.89101 13.1659 9.04599 13.4633C9.20097 13.7608 9.42542 14.0163 9.70025 14.2083Z" fill="black"/>
</svg>
